<svg width="350" height="350" viewBox="0 0 350 350" xmlns="http://www.w3.org/2000/svg">
  
  <g transform="translate(165, 185)">
    <g transform="translate(-50, 0)">
      <circle cx="-15" cy="-18" r="7" fill="#4A90E2"/>
      <circle cx="-15" cy="12" r="7" fill="#4A90E2"/>
      <path d="M -11 14 Q -11 24 -20 28" stroke="#4A90E2" stroke-width="5" stroke-linecap="round" fill="none"/>

      <circle cx="15" cy="-18" r="7" fill="#4A90E2"/>
      <circle cx="15" cy="12" r="7" fill="#4A90E2"/>
      <path d="M 19 14 Q 19 24 10 28" stroke="#4A90E2" stroke-width="5" stroke-linecap="round" fill="none"/>
    </g>
    
    <g transform="translate(0, 0)">
      <path d="M -15 0 L 15 0" stroke="#4A90E2" stroke-width="8" stroke-linecap="round" fill="none"/>
      <path d="M 15 0 L 2 -10 M 15 0 L 2 10" stroke="#4A90E2" stroke-width="8" stroke-linecap="round" stroke-linejoin="round" fill="none"/>
    </g>
    
    <g transform="translate(25, 0)">
      <rect x="0" y="-45" width="70" height="12" rx="6" fill="#4A90E2"/>
      <rect x="0" y="-20" width="90" height="12" rx="6" fill="#4A90E2"/>
      <rect x="0" y="5" width="80" height="12" rx="6" fill="#4A90E2"/>
      <rect x="0" y="30" width="60" height="12" rx="6" fill="#4A90E2" opacity="0.6"/>
    </g>
    
    <g transform="translate(25, -55)">
      <path d="M 0 -15 L 0 15 M -15 0 L 15 0" stroke="#FFB84D" stroke-width="6" stroke-linecap="round"/>
      <path d="M -10 -10 L 10 10 M 10 -10 L -10 10" stroke="#FFB84D" stroke-width="4" stroke-linecap="round" opacity="0.7"/>
    </g>
    
    <g transform="translate(100, 40)">
      <path d="M 0 -8 L 0 8 M -8 0 L 8 0" stroke="#FFB84D" stroke-width="4" stroke-linecap="round"/>
    </g>
  </g>
  
  <rect x="56" y="56" width="250" height="250" rx="70" fill="none" stroke="#4A90E2" stroke-width="16" opacity="0.7"/>
  <rect x="56" y="56" width="250" height="250" rx="70" fill="#4A90E2" opacity="0.1"/>

</svg>